<svg id="visual" viewBox="0 0 900 600" width="900" height="600" xmlns="http://www.w3.org/2000/svg" xmlns:xlink="http://www.w3.org/1999/xlink" version="1.1"><path d="M0 175L82 109L164 175L245 235L327 139L409 265L491 169L573 181L655 175L736 259L818 169L900 127L900 0L818 0L736 0L655 0L573 0L491 0L409 0L327 0L245 0L164 0L82 0L0 0Z" fill="#00cc8e"></path><path d="M0 367L82 349L164 295L245 349L327 319L409 361L491 301L573 289L655 373L736 349L818 313L900 361L900 125L818 167L736 257L655 173L573 179L491 167L409 263L327 137L245 233L164 173L82 107L0 173Z" fill="#00b98a"></path><path d="M0 415L82 433L164 343L245 457L327 385L409 493L491 367L573 385L655 475L736 397L818 427L900 457L900 359L818 311L736 347L655 371L573 287L491 299L409 359L327 317L245 347L164 293L82 347L0 365Z" fill="#00a784"></path><path d="M0 505L82 511L164 439L245 547L327 457L409 541L491 445L573 481L655 553L736 469L818 487L900 553L900 455L818 425L736 395L655 473L573 383L491 365L409 491L327 383L245 455L164 341L82 431L0 413Z" fill="#00957c"></path><path d="M0 601L82 601L164 601L245 601L327 601L409 601L491 601L573 601L655 601L736 601L818 601L900 601L900 551L818 485L736 467L655 551L573 479L491 443L409 539L327 455L245 545L164 437L82 509L0 503Z" fill="#038373"></path></svg>